# xmcd CD database file
#
# Track frame offsets:
#	150
#	2843
#	23897
#	28823
#	46633
#	72492
#	95038
#	120733
#	134549
#	161259
#	169928
#	205199
#	244445
#	281752
#	288603
#	295586
#
# Disc length: 4425 seconds
#
# Revision: 0
# Processed by: cddbd v1.5PL3 Copyright (c) Steve Scherf et al.
# Submitted via: CDex 1.50beta10
#
DISCID=f1114710
DTITLE=Moonstarr - Dupont
DYEAR=2002
DGENRE=Jazz
TTITLE0=intro
TTITLE1=dust
TTITLE2=interlude a
TTITLE3=duplex
TTITLE4=gluttony
TTITLE5=movin' on
TTITLE6=greed
TTITLE7=interlude b
TTITLE8=next move featuring voice
TTITLE9=interlude c
TTITLE10=scoliosis
TTITLE11=interplanetary thoughts in flight
TTITLE12=workin' man's hustle
TTITLE13=electro trio
TTITLE14=interlude d
TTITLE15=movin' on remix - featuring tash
EXTD=YEAR: 2002
EXTT0=
EXTT1=
EXTT2=
EXTT3=
EXTT4=
EXTT5=
EXTT6=
EXTT7=
EXTT8=
EXTT9=
EXTT10=
EXTT11=
EXTT12=
EXTT13=
EXTT14=
EXTT15=
PLAYORDER=
